<svg xmlns="http://www.w3.org/2000/svg" viewBox="0 0 1600 900" width="100%" height="100%" style="background-color: #ffffff; font-family: 'Segoe UI', -apple-system, BlinkMacSystemFont, Roboto, Helvetica, Arial, sans-serif;">
  <defs>
    <!-- Shadow Filter -->
    <filter id="card-shadow" x="-5%" y="-5%" width="110%" height="115%" filterUnits="userSpaceOnUse">
      <feDropShadow dx="0" dy="3" stdDeviation="4" flood-color="#000000" flood-opacity="0.08"/>
    </filter>
    <filter id="card-shadow-sm" x="-5%" y="-5%" width="110%" height="115%" filterUnits="userSpaceOnUse">
      <feDropShadow dx="0" dy="2" stdDeviation="2" flood-color="#000000" flood-opacity="0.06"/>
    </filter>
    
    <!-- Gradients -->
    <linearGradient id="header-gradient" x1="0%" y1="0%" x2="100%" y2="0%">
      <stop offset="0%" stop-color="#1e3a8a"/>
      <stop offset="100%" stop-color="#0284c7"/>
    </linearGradient>
    <linearGradient id="db-grad" x1="0%" y1="0%" x2="100%" y2="100%">
      <stop offset="0%" stop-color="#f59e0b"/>
      <stop offset="100%" stop-color="#d97706"/>
    </linearGradient>
    <linearGradient id="ai-grad" x1="0%" y1="0%" x2="100%" y2="100%">
      <stop offset="0%" stop-color="#059669"/>
      <stop offset="100%" stop-color="#10b981"/>
    </linearGradient>

    <!-- Markers -->
    <marker id="arrow" viewBox="0 0 10 10" refX="6" refY="5" markerWidth="6" markerHeight="6" orient="auto-start-reverse">
      <path d="M 0 1 L 8 5 L 0 9 z" fill="#475569"/>
    </marker>
    <marker id="arrow-blue" viewBox="0 0 10 10" refX="6" refY="5" markerWidth="6" markerHeight="6" orient="auto-start-reverse">
      <path d="M 0 1 L 8 5 L 0 9 z" fill="#0284c7"/>
    </marker>
    <marker id="arrow-green" viewBox="0 0 10 10" refX="6" refY="5" markerWidth="6" markerHeight="6" orient="auto-start-reverse">
      <path d="M 0 1 L 8 5 L 0 9 z" fill="#059669"/>
    </marker>
  </defs>

  <!-- ================= HEADER ================= -->
  <text x="50" y="50" font-size="28" font-weight="900" fill="#0f172a" letter-spacing="1">PROPOSED ARCHITECTURE</text>
  <line x1="50" y1="62" x2="420" y2="62" stroke="#0284c7" stroke-width="4" stroke-linecap="round"/>
  <text x="1100" y="48" font-size="14" font-weight="600" fill="#64748b" text-anchor="end">DropoutGuard — AI-Powered Academic Dropout Prediction &amp; Intervention System</text>
  <rect x="1120" y="32" width="90" height="24" rx="12" fill="#e0f2fe"/>
  <text x="1165" y="48" font-size="11" font-weight="700" fill="#0284c7" text-anchor="middle">SIH 2026</text>
  <rect x="1220" y="32" width="90" height="24" rx="12" fill="#dcfce7"/>
  <text x="1265" y="48" font-size="11" font-weight="700" fill="#15803d" text-anchor="middle">PSID: 7</text>
  <rect x="1320" y="32" width="110" height="24" rx="12" fill="#fef3c7"/>
  <text x="1375" y="48" font-size="11" font-weight="700" fill="#b45309" text-anchor="middle">TEAM 107</text>

  <!-- ================= LEFT SECTION: ONBOARDING & AUTHENTICATION ================= -->
  <!-- User Icon & Title -->
  <g transform="translate(50, 90)">
    <!-- Registration Box -->
    <g filter="url(#card-shadow-sm)">
      <rect x="20" y="10" width="190" height="150" rx="8" fill="#ffffff" stroke="#86efac" stroke-width="2"/>
      <path d="M 20 10 L 210 10 L 210 38 L 20 38 Z" fill="#dcfce7" rx="8"/>
      <text x="115" y="30" font-size="13" font-weight="800" fill="#166534" text-anchor="middle">Registration Process</text>
      
      <text x="32" y="58" font-size="10.5" fill="#334155">• Full Name</text>
      <text x="32" y="76" font-size="10.5" fill="#334155">• Student / Faculty ID</text>
      <text x="32" y="94" font-size="10.5" fill="#334155">• University Email</text>
      <text x="32" y="112" font-size="10.5" fill="#334155">• Department &amp; Semester</text>
      <text x="32" y="130" font-size="10.5" fill="#334155">• Role Selection (Student/Mentor)</text>
      <text x="32" y="148" font-size="10.5" fill="#334155">• Password &amp; 2FA Setup</text>
    </g>

    <!-- Login Box -->
    <g filter="url(#card-shadow-sm)" transform="translate(0, 180)">
      <rect x="20" y="10" width="190" height="110" rx="8" fill="#ffffff" stroke="#86efac" stroke-width="2"/>
      <path d="M 20 10 L 210 10 L 210 38 L 20 38 Z" fill="#dcfce7" rx="8"/>
      <text x="115" y="30" font-size="13" font-weight="800" fill="#166534" text-anchor="middle">Login Process</text>
      
      <text x="32" y="60" font-size="11" fill="#334155">• Username / Email / ID</text>
      <text x="32" y="80" font-size="11" fill="#334155">• Password Authentication</text>
      <text x="32" y="100" font-size="11" fill="#334155">• OTP / 2FA Verification</text>
    </g>
  </g>

  <!-- Decision Diamond: Already Registered? -->
  <g transform="translate(340, 310)">
    <polygon points="50,0 100,35 50,70 0,35" fill="#ffffff" stroke="#3b82f6" stroke-width="2" filter="url(#card-shadow-sm)"/>
    <text x="50" y="32" font-size="11" font-weight="700" fill="#1e40af" text-anchor="middle">Already</text>
    <text x="50" y="46" font-size="11" font-weight="700" fill="#1e40af" text-anchor="middle">Registered?</text>
  </g>

  <!-- RESTful API Gateway -->
  <g transform="translate(430, 95)" filter="url(#card-shadow)">
    <rect x="0" y="0" width="170" height="55" rx="8" fill="#fef3c7" stroke="#f59e0b" stroke-width="1.5"/>
    <rect x="12" y="14" width="28" height="28" rx="6" fill="#f59e0b"/>
    <text x="26" y="33" font-size="15" font-weight="900" fill="#ffffff" text-anchor="middle">&lt;/&gt;</text>
    <text x="50" y="26" font-size="12" font-weight="800" fill="#92400e">RESTful API</text>
    <text x="50" y="42" font-size="12" font-weight="800" fill="#92400e">Gateway (FastAPI)</text>
  </g>

  <!-- Authentication Module -->
  <g transform="translate(430, 180)" filter="url(#card-shadow-sm)">
    <rect x="0" y="0" width="170" height="85" rx="8" fill="#fffbeb" stroke="#fde68a" stroke-width="1.5"/>
    <text x="85" y="22" font-size="12" font-weight="800" fill="#b45309" text-anchor="middle">Authentication Module</text>
    <text x="85" y="40" font-size="9.5" fill="#78350f" text-anchor="middle">JWT Tokens, Session Mgmt</text>
    <text x="85" y="55" font-size="9.5" fill="#78350f" text-anchor="middle">Role-Based Access Control</text>
    <text x="85" y="70" font-size="9.5" fill="#78350f" text-anchor="middle">(RBAC) &amp; Institutional SSO</text>
  </g>

  <!-- Users Branching Hub -->
  <g transform="translate(460, 290)">
    <circle cx="20" cy="20" r="18" fill="#ede9fe" stroke="#8b5cf6" stroke-width="2"/>
    <text x="20" y="25" font-size="14" font-weight="800" fill="#6d28d9" text-anchor="middle">👥</text>
    <text x="50" y="25" font-size="13" font-weight="800" fill="#4c1d95">Users</text>
  </g>

  <!-- User Role Pills -->
  <g transform="translate(440, 335)">
    <!-- Student Pill -->
    <rect x="0" y="0" width="150" height="32" rx="6" fill="#e0f2fe" stroke="#38bdf8" stroke-width="1.5"/>
    <text x="75" y="20" font-size="11.5" font-weight="700" fill="#0369a1" text-anchor="middle">Students</text>
    
    <!-- Mentor Pill -->
    <rect x="0" y="44" width="150" height="32" rx="6" fill="#ede9fe" stroke="#a78bfa" stroke-width="1.5"/>
    <text x="75" y="64" font-size="11.5" font-weight="700" fill="#5b21b6" text-anchor="middle">Faculty Mentors / Counselors</text>

    <!-- Admin Pill -->
    <rect x="0" y="88" width="150" height="32" rx="6" fill="#fee2e2" stroke="#f87171" stroke-width="1.5"/>
    <text x="75" y="108" font-size="11.5" font-weight="700" fill="#991b1b" text-anchor="middle">Dean / HOD / Admin</text>
  </g>

  <!-- ================= MIDDLE TOP: ROLE-BASED DASHBOARDS ================= -->
  <g transform="translate(710, 80)">
    <!-- Header Icon & Title -->
    <rect x="0" y="0" width="28" height="28" rx="6" fill="#0ea5e9"/>
    <text x="14" y="19" font-size="14" fill="#ffffff" text-anchor="middle">📊</text>
    <text x="38" y="20" font-size="16" font-weight="900" fill="#0f172a">Dashboards (React + Vite)</text>

    <!-- Student Dashboard Card -->
    <g transform="translate(0, 35)" filter="url(#card-shadow-sm)">
      <rect x="0" y="0" width="220" height="105" rx="8" fill="#ffffff" stroke="#cbd5e1" stroke-width="1.5"/>
      <path d="M 0 0 L 220 0 L 220 28 L 0 28 Z" fill="#e0e7ff" rx="8"/>
      <text x="110" y="19" font-size="12" font-weight="800" fill="#3730a3" text-anchor="middle">Student Dashboard</text>
      
      <text x="12" y="46" font-size="10" fill="#334155">• Attendance Tracker (75% Rule)</text>
      <text x="12" y="62" font-size="10" fill="#334155">• Real-Time Dropout Risk Gauge</text>
      <text x="12" y="78" font-size="10" fill="#334155">• "Path to Improvement" Recourse</text>
      <text x="12" y="94" font-size="10" fill="#334155">• Mentor Booking &amp; Scholarship Desk</text>
    </g>

    <!-- Faculty Mentor / Counselor Dashboard Card -->
    <g transform="translate(0, 155)" filter="url(#card-shadow-sm)">
      <rect x="0" y="0" width="220" height="115" rx="8" fill="#ffffff" stroke="#cbd5e1" stroke-width="1.5"/>
      <path d="M 0 0 L 220 0 L 220 28 L 0 28 Z" fill="#ede9fe" rx="8"/>
      <text x="110" y="19" font-size="12" font-weight="800" fill="#5b21b6" text-anchor="middle">Faculty Mentor / Counselor</text>
      
      <text x="12" y="46" font-size="10" fill="#334155">• Prioritised Triage Queue (High/Med/Low)</text>
      <text x="12" y="62" font-size="10" fill="#334155">• TreeSHAP Waterfall Explanation Card</text>
      <text x="12" y="78" font-size="10" fill="#334155">• 12-Item Codified Action Catalog</text>
      <text x="12" y="94" font-size="10" fill="#334155">• Intervention Lifecycle Tracker</text>
      <text x="12" y="108" font-size="10" fill="#334155">• Student Case Notes &amp; Logs</text>
    </g>

    <!-- Admin / Dean / HOD Dashboard Card -->
    <g transform="translate(0, 285)" filter="url(#card-shadow-sm)">
      <rect x="0" y="0" width="220" height="105" rx="8" fill="#ffffff" stroke="#cbd5e1" stroke-width="1.5"/>
      <path d="M 0 0 L 220 0 L 220 28 L 0 28 Z" fill="#fee2e2" rx="8"/>
      <text x="110" y="19" font-size="12" font-weight="800" fill="#991b1b" text-anchor="middle">Admin / Dean / HOD Dashboard</text>
      
      <text x="12" y="46" font-size="10" fill="#334155">• Department Risk Heatmaps (CS/ME/EC)</text>
      <text x="12" y="62" font-size="10" fill="#334155">• NAAC / NIRF Graduation Outcome Predictor</text>
      <text x="12" y="78" font-size="10" fill="#334155">• Cohort Batch CSV Ingestion Pipeline</text>
      <text x="12" y="94" font-size="10" fill="#334155">• Retention ROI &amp; Fee Arrears Monitor</text>
    </g>
  </g>

  <!-- ================= RIGHT SECTION: CORE FEATURES MATRIX ================= -->
  <g transform="translate(1010, 80)">
    <!-- Header Icon & Title -->
    <rect x="0" y="0" width="28" height="28" rx="6" fill="#10b981"/>
    <text x="14" y="19" font-size="14" fill="#ffffff" text-anchor="middle">⚡</text>
    <text x="38" y="20" font-size="16" font-weight="900" fill="#0f172a">Core Features &amp; Modules</text>

    <!-- Group 1: Student Features (Top Row) -->
    <g transform="translate(0, 35)">
      <rect x="0" y="0" width="530" height="105" rx="8" fill="#f8fafc" stroke="#e2e8f0" stroke-width="1.5"/>
      
      <!-- Feature 1.1 -->
      <rect x="12" y="12" width="160" height="38" rx="6" fill="#ffffff" stroke="#cbd5e1" stroke-width="1" filter="url(#card-shadow-sm)"/>
      <text x="92" y="28" font-size="10.5" font-weight="700" fill="#0f172a" text-anchor="middle">Attendance Debarment</text>
      <text x="92" y="41" font-size="9.5" fill="#64748b" text-anchor="middle">Early Warning (75% Flag)</text>

      <!-- Feature 1.2 -->
      <rect x="184" y="12" width="160" height="38" rx="6" fill="#ffffff" stroke="#cbd5e1" stroke-width="1" filter="url(#card-shadow-sm)"/>
      <text x="264" y="28" font-size="10.5" font-weight="700" fill="#0f172a" text-anchor="middle">Counterfactual Recourse</text>
      <text x="264" y="41" font-size="9.5" fill="#64748b" text-anchor="middle">Path to Improvement Plan</text>

      <!-- Feature 1.3 -->
      <rect x="356" y="12" width="160" height="38" rx="6" fill="#ffffff" stroke="#cbd5e1" stroke-width="1" filter="url(#card-shadow-sm)"/>
      <text x="436" y="28" font-size="10.5" font-weight="700" fill="#0f172a" text-anchor="middle">Emergency Support Desk</text>
      <text x="436" y="41" font-size="9.5" fill="#64748b" text-anchor="middle">Fee Waiver &amp; Aid Connect</text>

      <!-- Feature 1.4 -->
      <rect x="12" y="58" width="160" height="38" rx="6" fill="#ffffff" stroke="#cbd5e1" stroke-width="1" filter="url(#card-shadow-sm)"/>
      <text x="92" y="74" font-size="10.5" font-weight="700" fill="#0f172a" text-anchor="middle">Digital LMS Tracker</text>
      <text x="92" y="87" font-size="9.5" fill="#64748b" text-anchor="middle">Logins &amp; Submission Lag</text>

      <!-- Feature 1.5 -->
      <rect x="184" y="58" width="160" height="38" rx="6" fill="#ffffff" stroke="#cbd5e1" stroke-width="1" filter="url(#card-shadow-sm)"/>
      <text x="264" y="74" font-size="10.5" font-weight="700" fill="#0f172a" text-anchor="middle">Backlog Recovery Plan</text>
      <text x="264" y="87" font-size="9.5" fill="#64748b" text-anchor="middle">Remedial Exam Strategy</text>

      <!-- Feature 1.6 -->
      <rect x="356" y="58" width="160" height="38" rx="6" fill="#ffffff" stroke="#cbd5e1" stroke-width="1" filter="url(#card-shadow-sm)"/>
      <text x="436" y="74" font-size="10.5" font-weight="700" fill="#0f172a" text-anchor="middle">Peer Mentor Connect</text>
      <text x="436" y="87" font-size="9.5" fill="#64748b" text-anchor="middle">Department Tutoring Link</text>
    </g>

    <!-- Group 2: Counselor Features (Middle Row) -->
    <g transform="translate(0, 155)">
      <rect x="0" y="0" width="530" height="115" rx="8" fill="#f8fafc" stroke="#e2e8f0" stroke-width="1.5"/>
      
      <!-- Feature 2.1 -->
      <rect x="12" y="12" width="160" height="42" rx="6" fill="#ffffff" stroke="#cbd5e1" stroke-width="1" filter="url(#card-shadow-sm)"/>
      <text x="92" y="30" font-size="11" font-weight="700" fill="#0f172a" text-anchor="middle">Prioritised Triage Queue</text>
      <text x="92" y="44" font-size="9.5" fill="#64748b" text-anchor="middle">Risk-Sorted Student Table</text>

      <!-- Feature 2.2 -->
      <rect x="184" y="12" width="160" height="42" rx="6" fill="#ffffff" stroke="#cbd5e1" stroke-width="1" filter="url(#card-shadow-sm)"/>
      <text x="264" y="30" font-size="11" font-weight="700" fill="#0f172a" text-anchor="middle">Explainable AI Feed</text>
      <text x="264" y="44" font-size="9.5" fill="#64748b" text-anchor="middle">TreeSHAP Local Drivers</text>

      <!-- Feature 2.3 -->
      <rect x="356" y="12" width="160" height="42" rx="6" fill="#ffffff" stroke="#cbd5e1" stroke-width="1" filter="url(#card-shadow-sm)"/>
      <text x="436" y="30" font-size="11" font-weight="700" fill="#0f172a" text-anchor="middle">Prescriptive Action Hub</text>
      <text x="436" y="44" font-size="9.5" fill="#64748b" text-anchor="middle">12 Codified Interventions</text>

      <!-- Feature 2.4 -->
      <rect x="12" y="62" width="160" height="42" rx="6" fill="#ffffff" stroke="#cbd5e1" stroke-width="1" filter="url(#card-shadow-sm)"/>
      <text x="92" y="80" font-size="11" font-weight="700" fill="#0f172a" text-anchor="middle">Intervention Tracker</text>
      <text x="92" y="94" font-size="9.5" fill="#64748b" text-anchor="middle">Lifecycle: Assigned to Done</text>

      <!-- Feature 2.5 -->
      <rect x="184" y="62" width="160" height="42" rx="6" fill="#ffffff" stroke="#cbd5e1" stroke-width="1" filter="url(#card-shadow-sm)"/>
      <text x="264" y="80" font-size="11" font-weight="700" fill="#0f172a" text-anchor="middle">Counselor Case Notes</text>
      <text x="264" y="94" font-size="9.5" fill="#64748b" text-anchor="middle">Confidential Mentor Logs</text>

      <!-- Feature 2.6 -->
      <rect x="356" y="62" width="160" height="42" rx="6" fill="#ffffff" stroke="#cbd5e1" stroke-width="1" filter="url(#card-shadow-sm)"/>
      <text x="436" y="80" font-size="11" font-weight="700" fill="#0f172a" text-anchor="middle">Recourse Simulator</text>
      <text x="436" y="94" font-size="9.5" fill="#64748b" text-anchor="middle">Interactive Risk Sliders</text>
    </g>

    <!-- Group 3: Admin Features (Bottom Row) -->
    <g transform="translate(0, 285)">
      <rect x="0" y="0" width="530" height="105" rx="8" fill="#f8fafc" stroke="#e2e8f0" stroke-width="1.5"/>
      
      <!-- Feature 3.1 -->
      <rect x="12" y="12" width="160" height="38" rx="6" fill="#ffffff" stroke="#cbd5e1" stroke-width="1" filter="url(#card-shadow-sm)"/>
      <text x="92" y="28" font-size="10.5" font-weight="700" fill="#0f172a" text-anchor="middle">Department Heatmaps</text>
      <text x="92" y="41" font-size="9.5" fill="#64748b" text-anchor="middle">Cross-Branch Benchmarks</text>

      <!-- Feature 3.2 -->
      <rect x="184" y="12" width="160" height="38" rx="6" fill="#ffffff" stroke="#cbd5e1" stroke-width="1" filter="url(#card-shadow-sm)"/>
      <text x="264" y="28" font-size="10.5" font-weight="700" fill="#0f172a" text-anchor="middle">Retention ROI Tracker</text>
      <text x="264" y="41" font-size="9.5" fill="#64748b" text-anchor="middle">Preserved Tuition Revenue</text>

      <!-- Feature 3.3 -->
      <rect x="356" y="12" width="160" height="38" rx="6" fill="#ffffff" stroke="#cbd5e1" stroke-width="1" filter="url(#card-shadow-sm)"/>
      <text x="436" y="28" font-size="10.5" font-weight="700" fill="#0f172a" text-anchor="middle">Accreditation Metrics</text>
      <text x="436" y="41" font-size="9.5" fill="#64748b" text-anchor="middle">NAAC / NIRF Graduation Score</text>

      <!-- Feature 3.4 -->
      <rect x="12" y="58" width="160" height="38" rx="6" fill="#ffffff" stroke="#cbd5e1" stroke-width="1" filter="url(#card-shadow-sm)"/>
      <text x="92" y="74" font-size="10.5" font-weight="700" fill="#0f172a" text-anchor="middle">Cohort CSV Batch Import</text>
      <text x="92" y="87" font-size="9.5" fill="#64748b" text-anchor="middle">2,000+ Student Processing</text>

      <!-- Feature 3.5 -->
      <rect x="184" y="58" width="160" height="38" rx="6" fill="#ffffff" stroke="#cbd5e1" stroke-width="1" filter="url(#card-shadow-sm)"/>
      <text x="264" y="74" font-size="10.5" font-weight="700" fill="#0f172a" text-anchor="middle">Fairness Parity Auditing</text>
      <text x="264" y="87" font-size="9.5" fill="#64748b" text-anchor="middle">FNR Gap &lt;= 1.36 pp Verified</text>

      <!-- Feature 3.6 -->
      <rect x="356" y="58" width="160" height="38" rx="6" fill="#ffffff" stroke="#cbd5e1" stroke-width="1" filter="url(#card-shadow-sm)"/>
      <text x="436" y="74" font-size="10.5" font-weight="700" fill="#0f172a" text-anchor="middle">Audit Logs &amp; Compliance</text>
      <text x="436" y="87" font-size="9.5" fill="#64748b" text-anchor="middle">DPDP Privacy &amp; Security</text>
    </g>
  </g>

  <!-- ================= BOTTOM SECTION: DATABASES & AI/ML ANALYTICS ================= -->
  
  <!-- Left Bottom: External Services -->
  <g transform="translate(50, 560)">
    <!-- Header -->
    <rect x="0" y="0" width="24" height="24" rx="4" fill="#0284c7"/>
    <text x="12" y="16" font-size="13" fill="#ffffff" text-anchor="middle">🌐</text>
    <text x="32" y="17" font-size="14" font-weight="800" fill="#0f172a">External Services &amp; APIs</text>

    <!-- Main Container -->
    <rect x="0" y="30" width="280" height="270" rx="8" fill="#ffffff" stroke="#cbd5e1" stroke-width="1.5" filter="url(#card-shadow)"/>
    
    <!-- Sub-Box 1: Institutional ERP Sync -->
    <rect x="15" y="45" width="250" height="75" rx="6" fill="#fef3c7" stroke="#fde68a" stroke-width="1"/>
    <text x="25" y="65" font-size="11.5" font-weight="800" fill="#92400e">Campus ERP &amp; SIS Connector</text>
    <text x="25" y="82" font-size="10" fill="#78350f">• Biometric attendance daily feed</text>
    <text x="25" y="97" font-size="10" fill="#78350f">• Exam branch grades &amp; backlogs</text>
    <text x="25" y="112" font-size="10" fill="#78350f">• Tuition fee arrears &amp; delay days</text>

    <!-- Sub-Box 2: Notification & Alert API -->
    <rect x="15" y="130" width="250" height="75" rx="6" fill="#fee2e2" stroke="#fecaca" stroke-width="1"/>
    <text x="25" y="150" font-size="11.5" font-weight="800" fill="#991b1b">Automated Alerts &amp; SMS API</text>
    <text x="25" y="167" font-size="10" fill="#7f1d1d">• Guardian SMS on &lt;75% debarment</text>
    <text x="25" y="182" font-size="10" fill="#7f1d1d">• Mentor consultation schedule push</text>
    <text x="25" y="197" font-size="10" fill="#7f1d1d">• Fee waiver application alerts</text>

    <!-- Sub-Box 3: LMS Clickstream API -->
    <rect x="15" y="215" width="250" height="70" rx="6" fill="#ede9fe" stroke="#ddd6fe" stroke-width="1"/>
    <text x="25" y="235" font-size="11.5" font-weight="800" fill="#5b21b6">LMS Connector (Moodle/Canvas)</text>
    <text x="25" y="252" font-size="10" fill="#4c1d95">• Weekly logins &amp; submission lags</text>
    <text x="25" y="267" font-size="10" fill="#4c1d95">• Syllabus resource download hits</text>
  </g>

  <!-- Middle Bottom: Databases Cylinder Container -->
  <g transform="translate(370, 560)">
    <!-- Header -->
    <rect x="0" y="0" width="24" height="24" rx="4" fill="#f59e0b"/>
    <text x="12" y="16" font-size="13" fill="#ffffff" text-anchor="middle">🗄️</text>
    <text x="32" y="17" font-size="14" font-weight="800" fill="#0f172a">Unified Database Layer</text>

    <!-- Container Cylinder Shape -->
    <rect x="0" y="30" width="370" height="270" rx="16" fill="#fffbeb" stroke="#fcd34d" stroke-width="2" filter="url(#card-shadow)"/>
    
    <!-- DB Item 1: Relational DB (SQLAlchemy / PostgreSQL) -->
    <g transform="translate(20, 50)" filter="url(#card-shadow-sm)">
      <rect x="0" y="0" width="155" height="100" rx="8" fill="#ffffff" stroke="#cbd5e1" stroke-width="1"/>
      <circle cx="25" cy="25" r="14" fill="#dbeafe"/>
      <text x="25" y="30" font-size="12" fill="#1e40af" text-anchor="middle">🗃️</text>
      <text x="45" y="28" font-size="11" font-weight="800" fill="#0f172a">Relational DB</text>
      <text x="10" y="52" font-size="9" fill="#475569">• Students &amp; Profiles</text>
      <text x="10" y="68" font-size="9" fill="#475569">• Demographics &amp; Category</text>
      <text x="10" y="84" font-size="9" fill="#475569">• Academic CGPA &amp; Marks</text>
    </g>

    <!-- DB Item 2: Risk Predictions & XAI Store -->
    <g transform="translate(195, 50)" filter="url(#card-shadow-sm)">
      <rect x="0" y="0" width="155" height="100" rx="8" fill="#ffffff" stroke="#cbd5e1" stroke-width="1"/>
      <circle cx="25" cy="25" r="14" fill="#fee2e2"/>
      <text x="25" y="30" font-size="12" fill="#b91c1c" text-anchor="middle">📈</text>
      <text x="45" y="28" font-size="11" font-weight="800" fill="#0f172a">Prediction Store</text>
      <text x="10" y="52" font-size="9" fill="#475569">• Calibrated Risk Probs</text>
      <text x="10" y="68" font-size="9" fill="#475569">• Risk Tier Snapshots</text>
      <text x="10" y="84" font-size="9" fill="#475569">• TreeSHAP Attributions</text>
    </g>

    <!-- DB Item 3: Intervention Lifecycle Logs -->
    <g transform="translate(20, 165)" filter="url(#card-shadow-sm)">
      <rect x="0" y="0" width="155" height="115" rx="8" fill="#ffffff" stroke="#cbd5e1" stroke-width="1"/>
      <circle cx="25" cy="25" r="14" fill="#ede9fe"/>
      <text x="25" y="30" font-size="12" fill="#6d28d9" text-anchor="middle">📝</text>
      <text x="45" y="28" font-size="11" font-weight="800" fill="#0f172a">Intervention Logs</text>
      <text x="10" y="52" font-size="9" fill="#475569">• Assigned Mentor ID</text>
      <text x="10" y="68" font-size="9" fill="#475569">• Status: In-Progress/Done</text>
      <text x="10" y="84" font-size="9" fill="#475569">• Counselor Case Notes</text>
      <text x="10" y="100" font-size="9" fill="#475569">• Followup Schedules</text>
    </g>

    <!-- DB Item 4: File & Batch Storage -->
    <g transform="translate(195, 165)" filter="url(#card-shadow-sm)">
      <rect x="0" y="0" width="155" height="115" rx="8" fill="#ffffff" stroke="#cbd5e1" stroke-width="1"/>
      <circle cx="25" cy="25" r="14" fill="#dcfce7"/>
      <text x="25" y="30" font-size="12" fill="#15803d" text-anchor="middle">📁</text>
      <text x="45" y="28" font-size="11" font-weight="800" fill="#0f172a">File &amp; Catalog</text>
      <text x="10" y="52" font-size="9" fill="#475569">• 12-Item Action Catalog</text>
      <text x="10" y="68" font-size="9" fill="#475569">• Batch CSV Cohort Files</text>
      <text x="10" y="84" font-size="9" fill="#475569">• Exported PDF Reports</text>
      <text x="10" y="100" font-size="9" fill="#475569">• Serialized .joblib Models</text>
    </g>
  </g>

  <!-- Right Bottom: AI/ML & Analytics Core -->
  <g transform="translate(790, 560)">
    <!-- Header -->
    <rect x="0" y="0" width="24" height="24" rx="4" fill="#10b981"/>
    <text x="12" y="16" font-size="13" fill="#ffffff" text-anchor="middle">🧠</text>
    <text x="32" y="17" font-size="14" font-weight="800" fill="#0f172a">AI / ML &amp; Analytics Core (ml/)</text>

    <!-- Container -->
    <rect x="0" y="30" width="750" height="270" rx="16" fill="#f0fdf4" stroke="#86efac" stroke-width="2" filter="url(#card-shadow)"/>

    <!-- ML Module 1: 4-Pillar Feature Transformer -->
    <g transform="translate(20, 50)" filter="url(#card-shadow-sm)">
      <rect x="0" y="0" width="165" height="230" rx="8" fill="#ffffff" stroke="#bbf7d0" stroke-width="1.5"/>
      <rect x="0" y="0" width="165" height="30" rx="8" fill="#dcfce7"/>
      <text x="82" y="20" font-size="11" font-weight="800" fill="#166534" text-anchor="middle">1. Feature Engine</text>
      
      <text x="10" y="48" font-size="9.5" font-weight="700" fill="#0f172a">37 Predictor Features:</text>
      <text x="10" y="65" font-size="8.5" fill="#334155">• Attendance (10 cols)</text>
      <text x="10" y="80" font-size="8.5" fill="#334155">• Academics &amp; CGPA (7)</text>
      <text x="10" y="95" font-size="8.5" fill="#334155">• LMS Clickstreams (6)</text>
      <text x="10" y="110" font-size="8.5" fill="#334155">• Socio-Economic (8)</text>
      <text x="10" y="130" font-size="9.5" font-weight="700" fill="#0f172a">Compound Interactions:</text>
      <text x="10" y="147" font-size="8.5" fill="#334155">• Absenteeism x Fee Delay</text>
      <text x="10" y="162" font-size="8.5" fill="#334155">• CGPA Deficit x Backlogs</text>
      <text x="10" y="177" font-size="8.5" fill="#334155">• FirstGen x Inactivity</text>
      <text x="10" y="192" font-size="8.5" fill="#334155">• Attendance x CGPA Drop</text>
      <text x="10" y="212" font-size="8.5" font-weight="700" fill="#059669">✔ Zero Leakage (&lt;0.70)</text>
    </g>

    <!-- ML Module 2: Calibrated Classifier -->
    <g transform="translate(200, 50)" filter="url(#card-shadow-sm)">
      <rect x="0" y="0" width="165" height="230" rx="8" fill="#ffffff" stroke="#bbf7d0" stroke-width="1.5"/>
      <rect x="0" y="0" width="165" height="30" rx="8" fill="#dcfce7"/>
      <text x="82" y="20" font-size="11" font-weight="800" fill="#166534" text-anchor="middle">2. Calibrated XGBoost</text>
      
      <text x="10" y="48" font-size="9.5" font-weight="700" fill="#0f172a">Champion Model:</text>
      <text x="10" y="65" font-size="8.5" fill="#334155">• Cost-Sensitive XGBoost</text>
      <text x="10" y="80" font-size="8.5" fill="#334155">• SMOTE Oversampling</text>
      <text x="10" y="95" font-size="8.5" fill="#334155">• scale_pos_weight = 1.82</text>
      <text x="10" y="115" font-size="9.5" font-weight="700" fill="#0f172a">Platt Sigmoid Scaling:</text>
      <text x="10" y="132" font-size="8.5" fill="#334155">• 5-Fold Cross Validation</text>
      <text x="10" y="147" font-size="8.5" fill="#334155">• Brier Score: 0.0689</text>
      <text x="10" y="167" font-size="9.5" font-weight="700" fill="#0f172a">Validated Benchmarks:</text>
      <text x="10" y="184" font-size="8.5" font-weight="700" fill="#15803d">• Recall: 83.96%</text>
      <text x="10" y="199" font-size="8.5" font-weight="700" fill="#15803d">• Precision: 89.90%</text>
      <text x="10" y="214" font-size="8.5" font-weight="700" fill="#15803d">• ROC-AUC: 0.9752</text>
    </g>

    <!-- ML Module 3: TreeSHAP XAI -->
    <g transform="translate(380, 50)" filter="url(#card-shadow-sm)">
      <rect x="0" y="0" width="165" height="230" rx="8" fill="#ffffff" stroke="#bbf7d0" stroke-width="1.5"/>
      <rect x="0" y="0" width="165" height="30" rx="8" fill="#dcfce7"/>
      <text x="82" y="20" font-size="11" font-weight="800" fill="#166534" text-anchor="middle">3. TreeSHAP XAI</text>
      
      <text x="10" y="48" font-size="9.5" font-weight="700" fill="#0f172a">Signed Attributions:</text>
      <text x="10" y="65" font-size="8.5" fill="#334155">• Exact Tree Traversal</text>
      <text x="10" y="80" font-size="8.5" fill="#334155">• +/- pp Risk Attribution</text>
      <text x="10" y="95" font-size="8.5" fill="#334155">• Sub-50ms Inference</text>
      <text x="10" y="115" font-size="9.5" font-weight="700" fill="#0f172a">Plain-Language Engine:</text>
      <text x="10" y="132" font-size="8.5" fill="#334155">• Value-grounded text</text>
      <text x="10" y="147" font-size="8.5" fill="#334155">• Counselor-friendly logs</text>
      <text x="10" y="167" font-size="9.5" font-weight="700" fill="#0f172a">Cache Sync:</text>
      <text x="10" y="184" font-size="8.5" fill="#334155">• Invalidate on retrain</text>
      <text x="10" y="199" font-size="8.5" fill="#334155">• Synchronous rebuild</text>
      <text x="10" y="214" font-size="8.5" font-weight="700" fill="#059669">✔ Zero Black-Box Skep</text>
    </g>

    <!-- ML Module 4: Counterfactual Recourse -->
    <g transform="translate(560, 50)" filter="url(#card-shadow-sm)">
      <rect x="0" y="0" width="170" height="230" rx="8" fill="#ffffff" stroke="#bbf7d0" stroke-width="1.5"/>
      <rect x="0" y="0" width="170" height="30" rx="8" fill="#dcfce7"/>
      <text x="85" y="20" font-size="11" font-weight="800" fill="#166534" text-anchor="middle">4. Recourse Optimizer</text>
      
      <text x="10" y="48" font-size="9.5" font-weight="700" fill="#0f172a">Path to Improvement:</text>
      <text x="10" y="65" font-size="8.5" fill="#334155">• Targets Top SHAP drivers</text>
      <text x="10" y="80" font-size="8.5" fill="#334155">• Minimal achievable deltas</text>
      <text x="10" y="95" font-size="8.5" fill="#334155">• Backlog &amp; Att remediation</text>
      <text x="10" y="115" font-size="9.5" font-weight="700" fill="#0f172a">Action Mapping:</text>
      <text x="10" y="132" font-size="8.5" fill="#334155">• 12 Codified Actions</text>
      <text x="10" y="147" font-size="8.5" fill="#334155">• Auto-prioritized triage</text>
      <text x="10" y="167" font-size="9.5" font-weight="700" fill="#0f172a">Fairness Guaranteed:</text>
      <text x="10" y="184" font-size="8.5" fill="#334155">• Gender Gap: 1.18 pp</text>
      <text x="10" y="199" font-size="8.5" fill="#334155">• Income Gap: 0.89 pp</text>
      <text x="10" y="214" font-size="8.5" font-weight="700" fill="#15803d">✔ 100% Deterministic</text>
    </g>
  </g>

  <!-- ================= CONNECTING PATHWAYS & LABELS ================= -->
  
  <!-- Registration/Login to Decision Diamond -->
  <path d="M 260 175 L 340 345" stroke="#475569" stroke-width="1.5" fill="none" marker-end="url(#arrow)"/>
  <path d="M 260 345 L 340 345" stroke="#475569" stroke-width="1.5" fill="none" marker-end="url(#arrow)"/>
  <text x="280" y="250" font-size="10" font-weight="700" fill="#475569">No</text>
  <text x="295" y="338" font-size="10" font-weight="700" fill="#475569">Yes</text>

  <!-- Decision Diamond to API Gateway -->
  <path d="M 390 310 L 390 122 L 430 122" stroke="#475569" stroke-width="1.5" fill="none" marker-end="url(#arrow)"/>
  <text x="320" y="210" font-size="9.5" font-weight="700" fill="#0284c7">Verify Credentials</text>

  <!-- API Gateway to Auth Module -->
  <path d="M 515 150 L 515 180" stroke="#f59e0b" stroke-width="1.5" fill="none" marker-end="url(#arrow)"/>
  <text x="522" y="168" font-size="8.5" fill="#b45309">Request Auth</text>

  <!-- Auth Module to Users -->
  <path d="M 515 265 L 515 290" stroke="#8b5cf6" stroke-width="1.5" fill="none" marker-end="url(#arrow)"/>

  <!-- Users to Dashboards -->
  <path d="M 590 351 L 710 160" stroke="#0284c7" stroke-width="1.5" stroke-dasharray="4" fill="none" marker-end="url(#arrow-blue)"/>
  <path d="M 590 395 L 710 270" stroke="#8b5cf6" stroke-width="1.5" stroke-dasharray="4" fill="none" marker-end="url(#arrow)"/>
  <path d="M 590 439 L 710 390" stroke="#ef4444" stroke-width="1.5" stroke-dasharray="4" fill="none" marker-end="url(#arrow)"/>
  <text x="630" y="240" font-size="10" font-weight="700" fill="#0284c7">Authenticated Sessions</text>

  <!-- Dashboards to Core Features Flow -->
  <path d="M 930 160 L 1010 160" stroke="#0284c7" stroke-width="1.5" fill="none" marker-end="url(#arrow-blue)"/>
  <path d="M 930 270 L 1010 270" stroke="#8b5cf6" stroke-width="1.5" fill="none" marker-end="url(#arrow)"/>
  <path d="M 930 390 L 1010 390" stroke="#ef4444" stroke-width="1.5" fill="none" marker-end="url(#arrow)"/>
  <text x="942" y="210" font-size="9.5" font-weight="700" fill="#475569">Requests &amp;</text>
  <text x="942" y="222" font-size="9.5" font-weight="700" fill="#475569">Data Flow</text>

  <!-- External Services to Database -->
  <path d="M 330 695 L 370 695" stroke="#f59e0b" stroke-width="1.5" fill="none" marker-end="url(#arrow)"/>
  <text x="333" y="685" font-size="9" font-weight="700" fill="#b45309">Sync</text>

  <!-- Database to AI/ML Core -->
  <path d="M 740 695 L 790 695" stroke="#10b981" stroke-width="2" fill="none" marker-end="url(#arrow-green)"/>
  <path d="M 790 705 L 740 705" stroke="#10b981" stroke-width="2" fill="none" marker-end="url(#arrow-green)"/>
  <text x="745" y="685" font-size="10" font-weight="800" fill="#047857">Stores / Reads</text>
  <text x="748" y="722" font-size="9" fill="#047857">Features &amp; Logs</text>

  <!-- AI/ML Core to Core Features (Vertical Connector) -->
  <path d="M 1275 560 L 1275 425" stroke="#10b981" stroke-width="2" stroke-dasharray="5" fill="none" marker-end="url(#arrow-green)"/>
  <text x="1285" y="495" font-size="10.5" font-weight="800" fill="#047857">Real-Time Inferences, SHAP Drivers &amp; Recourse</text>

</svg>
